<?xml version="1.0" encoding="utf-8"?>
<!-- Generator: Adobe Illustrator 19.0.0, SVG Export Plug-In . SVG Version: 6.00 Build 0)  -->
<svg version="1.1" id="layer" xmlns="http://www.w3.org/2000/svg" xmlns:xlink="http://www.w3.org/1999/xlink" x="0px" y="0px"
	 viewBox="-153 -46 652 652" style="enable-background:new -153 -46 652 652;" xml:space="preserve">
<polyline points="68.8,258.8 68.5,258.8 57.6,313.8 52.5,313.8 41.1,258.8 40.9,258.8 40.9,313.8 31.9,313.8 31.9,237.8 44.8,237.8 
	55,288.3 55.1,288.3 64.8,237.8 78.9,237.8 78.9,313.8 68.8,313.8 "/>
<rect x="91" y="237.8" width="10.2" height="76"/>
<path d="M112.5,297.5v-9.9h9.6v10.1c0,5.3,2.6,8.6,8.4,8.6c5.4,0,7.9-3.6,7.9-8.6v-3.6c0-5.2-2-6.8-6.9-11.4l-7.9-7.8
	c-7.4-7.3-10.9-10.4-10.9-18.9v-2.8c0-9.5,5.8-16.3,17.4-16.3c12.2,0,17.4,5.9,17.4,16.7v7.4h-9.4v-7.8c0-5.6-2.7-8.1-7.9-8.1
	c-4.8,0-7.9,2.7-7.9,7.9v2.2c0,5,2.8,6.5,7.3,10.9l8.2,8.1c7.1,7.2,10.6,10.1,10.6,18.7v4.1c0,10-5.6,17.4-18.1,17.4
	C117.8,314.6,112.5,307.5,112.5,297.5"/>
<polyline points="154.1,237.8 188,237.8 188,246.2 176.3,246.2 176.3,313.8 166,313.8 166,246.2 154.1,246.2 "/>
<polyline points="196.2,237.8 226.5,237.8 226.5,246.2 206.4,246.2 206.4,271 220.9,271 220.9,279.3 206.4,279.3 206.4,305.4 
	226.5,305.4 226.5,313.8 196.2,313.8 "/>
<path d="M245.9,246.2v26h6.2c5.6,0,8.1-2.8,8.1-7.8v-10.6c0-5.1-2.6-7.7-8.1-7.7 M245.9,277.3v36.5h-10.2v-76h17.5
	c12.3,0,17.2,6,17.2,16.4v9.4c0,9-3.8,14.3-13.1,15.4l15.4,34.7h-10.9L245.9,277.3z"/>
<path d="M300.8,297.5v-9.9h9.6v10.1c0,5.3,2.5,8.6,8.4,8.6c5.5,0,7.9-3.6,7.9-8.6v-3.6c0-5.2-2-6.8-6.9-11.4L312,275
	c-7.4-7.3-10.9-10.4-10.9-18.9v-2.8c0-9.5,5.8-16.3,17.4-16.3c12.2,0,17.4,5.9,17.4,16.7v7.4h-9.4v-7.8c0-5.6-2.7-8.1-7.9-8.1
	c-4.8,0-7.9,2.7-7.9,7.9v2.2c0,5,2.8,6.5,7.3,10.9l8.2,8.1c7.1,7.2,10.6,10.1,10.6,18.7v4.1c0,10-5.6,17.4-18.1,17.4
	S300.8,307.5,300.8,297.5"/>
<path d="M356.2,246.2v33.5h6.5c5.6,0,8.1-2.8,8.1-7.9v-17.9c0-5.1-2.6-7.7-8.1-7.7 M346,237.8h17.9c12.3,0,17.1,6,17.1,16.4V271
	c0,10.2-4.8,16.6-17.1,16.6h-7.7v26.1H346V237.8z"/>
<polyline points="390.4,237.8 420.7,237.8 420.7,246.2 400.7,246.2 400.7,271 415.2,271 415.2,279.3 400.7,279.3 400.7,305.4 
	420.7,305.4 420.7,313.8 390.4,313.8 "/>
<polyline points="441.4,273.5 429.3,237.8 439.9,237.8 448.7,265 457.7,237.8 467.4,237.8 455.2,273.9 468.8,313.8 458.1,313.8 
	447.9,282.7 437.9,313.8 428.2,313.8 "/>
<path d="M-30.4,306c-10.7,0-19.8-3.3-27.1-9.7c-4.2-3.7-7.9-7.8-11.1-11.4c-0.1-0.1-0.2-0.1-0.3-0.2c-1.5-1.8-3.2-2.5-5.2-2.6
	c-2,0-3.7,0.8-5.2,2.6c-0.1,0.1-0.2,0.1-0.3,0.2c-3.2,3.6-7,7.7-11.1,11.4c-7.3,6.5-16.4,9.7-27.1,9.7c-4.2,0-8.7-0.5-13.3-1.6l0,0
	v18.1c0,2.8,2.1,4.3,5.1,5.1c3,0.9,21.1,5.5,52,5.5c30.8,0,48.9-4.6,51.9-5.5c3-0.8,5.1-2.3,5.1-5.1v-18.1l0,0
	C-21.7,305.5-26.2,306-30.4,306"/>
<path d="M-52.3,259.2c-5.4,3.5-10.8,8.6-10.8,11.6c0,0.5,0,0.9,0,1.3h0c0.2,1.8,0.7,3.3,2.9,7.2c0,0.1,0.1,0.1,0.1,0.1l0.1,0.1
	c3.7,6,8.8,11.6,15.1,16.8c4.6,3.7,10.5,5,17.4,5c3.2,0,6.7-0.4,10.5-1.2v-23.4v-24.9C-29.1,250.4-40.5,252.8-52.3,259.2"/>
<path d="M-131.2,300.1c3.7,0.8,7.2,1.2,10.5,1.2h0c7,0,12.8-1.3,17.4-5c6.4-5.1,11.5-10.7,15.1-16.8l0.1-0.1c0-0.1,0-0.1,0.1-0.1
	c2.2-3.9,2.7-5.4,2.9-7.2c0,0,0,0,0,0c0-0.4,0-0.8,0-1.3c0-3-5.5-8.1-10.8-11.6c-11.8-6.4-23.2-8.8-35.3-7.3v24.9"/>
<path d="M-120,245.6c14.1,0,28.6,4,39.8,10.9l0.9,0.5c1.8,1.1,3.9,2.2,5.2,2.2c1.4,0,3.5-1.1,5.2-2.2l0.9-0.5
	c11.1-6.9,25.6-10.9,39.8-10.9c4.3,0,11.1,0.5,11.1,0.5l0-17.1c0-2.8-2.2-4.2-5.1-5.1c-2.9-0.9-21.2-5.4-52-5.4
	c-30.7,0-49,4.5-51.9,5.4c-2.9,0.9-5.1,2.3-5.1,5.1l0,17.1C-131.2,246-124.3,245.6-120,245.6"/>
<polyline points="68.8,259.5 68.5,259.5 57.6,314.4 52.5,314.4 41.1,259.5 40.9,259.5 40.9,314.4 31.9,314.4 31.9,238.4 44.8,238.4 
	55,289 55.1,289 64.8,238.4 78.9,238.4 78.9,314.4 68.8,314.4 "/>
<rect x="91" y="238.4" width="10.2" height="76"/>
<path d="M112.5,298.2v-9.9h9.6v10.1c0,5.3,2.6,8.6,8.4,8.6c5.4,0,7.9-3.6,7.9-8.6v-3.6c0-5.2-2-6.8-6.8-11.4l-7.9-7.8
	c-7.4-7.3-10.9-10.4-10.9-18.9v-2.8c0-9.5,5.8-16.2,17.4-16.2c12.2,0,17.4,5.9,17.4,16.7v7.4h-9.4V254c0-5.6-2.7-8.1-7.9-8.1
	c-4.8,0-7.9,2.7-7.9,7.9v2.2c0,5,2.8,6.5,7.3,10.9l8.2,8.1c7.1,7.2,10.6,10.1,10.6,18.7v4.1c0,10-5.6,17.4-18.1,17.4
	C117.8,315.2,112.5,308.1,112.5,298.2"/>
<polyline points="154.1,238.4 188,238.4 188,246.8 176.3,246.8 176.3,314.4 166,314.4 166,246.8 154.1,246.8 "/>
<polyline points="196.2,238.4 226.5,238.4 226.5,246.8 206.4,246.8 206.4,271.7 220.9,271.7 220.9,279.9 206.4,279.9 206.4,306.1 
	226.5,306.1 226.5,314.4 196.2,314.4 "/>
<path d="M245.9,246.8v26h6.2c5.6,0,8.1-2.8,8.1-7.8v-10.6c0-5.1-2.6-7.7-8.1-7.7 M245.9,277.9v36.5h-10.2v-76h17.5
	c12.3,0,17.2,6,17.2,16.4v9.4c0,9-3.8,14.3-13.1,15.4l15.4,34.7h-10.9L245.9,277.9z"/>
<path d="M300.8,298.2v-9.9h9.6v10.1c0,5.3,2.5,8.6,8.4,8.6c5.5,0,7.9-3.6,7.9-8.6v-3.6c0-5.2-2-6.8-6.9-11.4l-7.9-7.8
	c-7.4-7.3-10.9-10.4-10.9-18.9v-2.8c0-9.5,5.8-16.2,17.4-16.2c12.2,0,17.4,5.9,17.4,16.7v7.4h-9.4V254c0-5.6-2.7-8.1-7.9-8.1
	c-4.8,0-7.9,2.7-7.9,7.9v2.2c0,5,2.8,6.5,7.3,10.9l8.2,8.1c7.1,7.2,10.6,10.1,10.6,18.7v4.1c0,10-5.6,17.4-18.1,17.4
	S300.8,308.1,300.8,298.2"/>
<path d="M356.2,246.8v33.5h6.5c5.6,0,8.1-2.8,8.1-7.9v-17.9c0-5.1-2.6-7.7-8.1-7.7 M346,238.4h17.9c12.3,0,17.1,6,17.1,16.4v16.9
	c0,10.2-4.8,16.6-17.1,16.6h-7.7v26.1H346V238.4z"/>
<polyline points="390.4,238.4 420.7,238.4 420.7,246.8 400.7,246.8 400.7,271.7 415.2,271.7 415.2,279.9 400.7,279.9 400.7,306.1 
	420.7,306.1 420.7,314.4 390.4,314.4 "/>
<polyline points="441.4,274.1 429.3,238.4 439.9,238.4 448.7,265.6 457.7,238.4 467.4,238.4 455.2,274.6 468.8,314.4 458.1,314.4 
	447.9,283.3 437.9,314.4 428.2,314.4 "/>
<path d="M-30.4,306.7c-10.7,0-19.8-3.3-27.1-9.7c-4.2-3.7-7.9-7.8-11.1-11.4c-0.1-0.1-0.2-0.1-0.3-0.2c-1.5-1.8-3.2-2.5-5.2-2.6
	c-2,0-3.7,0.8-5.2,2.6c-0.1,0.1-0.2,0.1-0.3,0.2c-3.2,3.6-7,7.7-11.1,11.4c-7.3,6.5-16.4,9.7-27.1,9.7c-4.2,0-8.7-0.5-13.3-1.5l0,0
	v18.1c0,2.8,2.1,4.3,5.1,5.1c3,0.9,21.1,5.5,52,5.5c30.8,0,48.9-4.6,51.9-5.5c3-0.8,5.1-2.3,5.1-5.1v-18.1l0,0
	C-21.7,306.1-26.2,306.7-30.4,306.7"/>
<path d="M-52.3,259.8c-5.4,3.5-10.8,8.6-10.8,11.6c0,0.5,0,0.9,0,1.3h0c0.2,1.8,0.7,3.3,2.9,7.2c0,0,0.1,0.1,0.1,0.1l0.1,0.1
	c3.7,6,8.8,11.6,15.1,16.8c4.6,3.7,10.5,5,17.4,5c3.2,0,6.7-0.4,10.5-1.2v-23.4v-24.9C-29.1,251-40.5,253.4-52.3,259.8"/>
<path d="M-131.2,300.7c3.7,0.8,7.2,1.2,10.5,1.2h0c7,0,12.8-1.4,17.4-5c6.4-5.1,11.5-10.7,15.1-16.8l0.1-0.1c0-0.1,0-0.1,0.1-0.2
	c2.2-3.8,2.7-5.4,2.9-7.2c0,0,0,0,0,0c0-0.4,0-0.8,0-1.3c0-3-5.5-8.1-10.8-11.6c-11.8-6.4-23.2-8.8-35.3-7.3v24.9"/>
<path d="M-120,246.2c14.1,0,28.6,4,39.8,10.9l0.9,0.5c1.8,1.1,3.9,2.2,5.2,2.2c1.4,0,3.5-1.1,5.2-2.2l0.9-0.5
	c11.1-6.9,25.6-10.9,39.8-10.9c4.3,0,11.1,0.5,11.1,0.5l0-17.1c0-2.8-2.2-4.2-5.1-5.1c-2.9-0.9-21.2-5.4-52-5.4
	c-30.7,0-49,4.5-51.9,5.4c-2.9,0.9-5.1,2.3-5.1,5.1l0,17.1C-131.2,246.6-124.3,246.2-120,246.2"/>
</svg>
